<?xml version="1.0" standalone="no"?>
<!DOCTYPE svg PUBLIC "-//W3C//DTD SVG 20010904//EN"
 "http://www.w3.org/TR/2001/REC-SVG-20010904/DTD/svg10.dtd">
<svg version="1.0" xmlns="http://www.w3.org/2000/svg"
 width="216.000000pt" height="233.000000pt" viewBox="0 0 216.000000 233.000000"
 preserveAspectRatio="xMidYMid meet">

<g transform="translate(0.000000,233.000000) scale(0.100000,-0.100000)"
fill="#000000" stroke="none">
<path d="M945 1740 c-132 -27 -277 -147 -330 -275 -27 -63 -30 -80 -29 -180 0
-122 16 -177 77 -267 33 -50 47 -59 47 -33 0 9 9 32 19 53 81 159 308 223 487
137 47 -23 134 -99 134 -117 0 -4 -42 -8 -94 -8 l-94 0 -47 66 c-38 53 -49 63
-61 53 -12 -10 -9 -19 21 -60 19 -27 35 -51 35 -53 0 -3 -19 -6 -41 -8 -55 -4
-74 -31 -41 -58 18 -15 25 -38 39 -129 l17 -111 213 0 c136 0 213 4 213 10 0
6 7 56 15 112 12 79 20 105 35 115 40 28 13 63 -49 63 -17 0 -31 3 -31 6 0 3
16 26 35 51 28 37 33 49 23 60 -10 12 -15 11 -31 -9 l-19 -23 7 35 c24 132 14
217 -40 327 -90 182 -305 284 -510 243z m150 -101 c22 -6 55 -22 73 -36 101
-76 97 -250 -9 -320 -37 -25 -52 -28 -119 -28 -70 0 -79 2 -117 32 -127 101
-93 301 58 348 55 17 65 17 114 4z m40 -689 c0 -18 -6 -26 -22 -28 -13 -2 -23
0 -23 5 0 4 -3 18 -7 31 -5 21 -3 23 23 20 23 -2 29 -8 29 -28z m197 5 c6 -31
2 -35 -39 -35 -30 0 -33 3 -33 30 0 27 3 30 34 30 28 0 34 -4 38 -25z m176 -2
c-2 -22 -8 -28 -28 -28 -20 0 -26 6 -28 28 -3 24 0 27 28 27 28 0 31 -3 28
-27z m-321 1 c3 -10 13 -14 25 -11 12 4 18 1 15 -6 -2 -7 -15 -13 -29 -15 -20
-2 -26 2 -30 22 -6 28 9 36 19 10z m238 -1 c-2 -10 -4 -22 -4 -26 -1 -14 -54
-3 -59 12 -3 9 1 11 16 7 13 -4 22 -1 26 9 8 21 25 19 21 -2z m-287 -86 c2
-12 -3 -17 -17 -17 -15 0 -21 6 -21 21 0 25 33 22 38 -4z m92 3 c0 -16 -7 -20
-30 -20 -23 0 -30 4 -30 20 0 16 7 20 30 20 23 0 30 -4 30 -20z m105 0 c0 -10
-12 -16 -37 -18 -33 -3 -38 0 -38 18 0 18 5 21 38 18 25 -2 37 -8 37 -18z m95
16 c0 -20 -16 -36 -35 -36 -26 0 -40 14 -30 30 6 9 65 15 65 6z m68 -13 c-4
-22 -48 -31 -48 -10 0 19 10 27 32 27 13 0 18 -6 16 -17z m-358 -73 c0 -11 -7
-20 -15 -20 -8 0 -15 9 -15 20 0 11 7 20 15 20 8 0 15 -9 15 -20z m90 2 c0
-26 -6 -30 -35 -24 -38 7 -34 42 5 42 22 0 30 -5 30 -18z m104 1 c10 -24 -8
-36 -43 -28 -22 5 -31 12 -31 26 0 15 7 19 34 19 22 0 36 -6 40 -17z m86 13
c0 -2 3 -11 6 -20 5 -13 -1 -16 -30 -16 -39 0 -39 0 -30 24 5 14 54 24 54 12z
m63 -16 c-6 -22 -33 -28 -33 -7 0 17 10 27 26 27 7 0 10 -8 7 -20z"/>
<path d="M1090 1554 c-23 -27 -101 -67 -157 -80 -65 -15 -86 -30 -58 -40 29
-11 145 23 193 56 l43 31 30 -26 c33 -27 79 -34 79 -11 0 8 -11 17 -25 20 -13
3 -35 20 -47 36 -24 34 -40 37 -58 14z"/>
<path d="M1315 99 c-4 -6 -4 -13 -1 -16 3 -4 6 -1 6 6 0 8 6 11 16 7 8 -3 12
-2 9 4 -8 13 -22 13 -30 -1z"/>
<path d="M1365 100 c-4 -6 -1 -17 5 -25 6 -8 9 -19 5 -25 -3 -5 -4 -10 -1 -10
3 0 10 10 17 21 7 13 7 19 1 15 -6 -3 -14 -1 -18 5 -3 6 0 15 7 20 9 6 10 9 2
9 -6 0 -15 -5 -18 -10z"/>
<path d="M1428 103 c6 -2 18 -2 25 0 6 3 1 5 -13 5 -14 0 -19 -2 -12 -5z"/>
<path d="M1479 108 c-1 -2 -3 -15 -5 -30 -3 -31 12 -46 29 -28 9 9 8 14 -5 24
-22 16 -23 30 -2 22 8 -3 12 -2 9 4 -6 9 -23 14 -26 8z m21 -48 c0 -5 -4 -10
-10 -10 -5 0 -10 5 -10 10 0 6 5 10 10 10 6 0 10 -4 10 -10z"/>
<path d="M1590 106 c0 -2 7 -7 16 -10 8 -3 12 -2 9 4 -6 10 -25 14 -25 6z"/>
<path d="M1700 103 c5 -2 10 -16 10 -30 0 -20 -4 -24 -17 -18 -15 5 -16 4 -5
-6 8 -9 15 -10 23 -2 14 14 8 56 -9 59 -7 1 -8 0 -2 -3z"/>
<path d="M482 80 c0 -14 2 -19 5 -12 2 6 2 18 0 25 -3 6 -5 1 -5 -13z"/>
<path d="M580 76 c0 -14 4 -27 8 -30 5 -3 6 8 4 25 -5 35 -12 38 -12 5z"/>
<path d="M770 70 c0 -16 4 -30 8 -30 5 0 7 13 4 30 -2 17 -6 30 -8 30 -2 0 -4
-13 -4 -30z"/>
<path d="M1530 80 c-12 -22 -6 -40 13 -40 8 0 8 3 -2 9 -10 7 -11 13 -2 30 7
11 9 21 7 21 -3 0 -10 -9 -16 -20z"/>
<path d="M827 71 c6 -22 -12 -30 -20 -8 -2 8 -4 7 -3 -2 1 -8 7 -16 13 -19 17
-5 29 26 15 40 -8 8 -9 5 -5 -11z"/>
<path d="M1094 79 c-4 -7 -3 -9 4 -5 6 3 13 -2 15 -11 4 -16 5 -16 6 -1 1 21
-15 32 -25 17z"/>
<path d="M1633 74 c-3 -8 -1 -20 5 -26 12 -12 32 -2 31 15 0 9 -2 9 -6 0 -8
-21 -26 -15 -20 7 6 24 -1 27 -10 4z"/>
<path d="M531 63 c-1 -23 22 -32 34 -13 3 5 0 7 -9 4 -8 -3 -16 2 -19 13 -4
14 -5 14 -6 -4z"/>
<path d="M738 68 c10 -13 10 -17 0 -21 -9 -4 -9 -6 -1 -6 20 -2 24 16 5 30
-15 13 -16 12 -4 -3z"/>
<path d="M900 70 c0 -5 5 -10 11 -10 5 0 7 5 4 10 -3 6 -8 10 -11 10 -2 0 -4
-4 -4 -10z"/>
<path d="M963 66 c1 -11 9 -21 17 -23 10 -3 11 -2 4 4 -6 4 -14 15 -17 23 -5
11 -6 9 -4 -4z"/>
<path d="M1061 64 c0 -11 3 -14 6 -6 3 7 2 16 -1 19 -3 4 -6 -2 -5 -13z"/>
<path d="M1222 68 c-17 -17 -15 -28 6 -27 11 0 12 2 4 6 -10 4 -10 8 -1 19 14
17 8 19 -9 2z"/>
<path d="M1268 63 c6 -2 18 -2 25 0 6 3 1 5 -13 5 -14 0 -19 -2 -12 -5z"/>
<path d="M1310 63 c0 -19 21 -27 33 -13 9 10 9 11 -2 5 -8 -4 -17 -2 -22 6 -6
9 -9 10 -9 2z"/>
<path d="M857 49 c7 -7 15 -10 18 -7 3 3 -2 9 -12 12 -14 6 -15 5 -6 -5z"/>
<path d="M658 43 c7 -3 16 -2 19 1 4 3 -2 6 -13 5 -11 0 -14 -3 -6 -6z"/>
<path d="M1588 43 c6 -2 18 -2 25 0 6 3 1 5 -13 5 -14 0 -19 -2 -12 -5z"/>
</g>
</svg>
