<?xml version="1.0" standalone="no"?>
<!DOCTYPE svg PUBLIC "-//W3C//DTD SVG 20010904//EN"
 "http://www.w3.org/TR/2001/REC-SVG-20010904/DTD/svg10.dtd">
<svg version="1.0" xmlns="http://www.w3.org/2000/svg"
 width="250.000000pt" height="200.000000pt" viewBox="0 0 250.000000 200.000000"
 preserveAspectRatio="xMidYMid meet">

<g transform="translate(0.000000,200.000000) scale(0.100000,-0.100000)"
fill="#000000" stroke="none">
<path d="M790 1140 l-145 -6 153 -2 c96 -1 152 2 152 8 0 6 -3 9 -7 8 -5 -1
-73 -5 -153 -8z"/>
<path d="M1070 1126 c0 -25 60 -180 73 -188 20 -12 259 -10 252 3 -4 6 -13 8
-21 5 -9 -3 -17 7 -23 31 -6 20 -9 38 -8 40 2 1 20 -3 40 -9 29 -9 36 -15 31
-30 -3 -10 -1 -18 4 -18 7 0 53 149 52 173 0 4 -90 7 -200 7 -167 0 -200 -2
-200 -14z m265 -102 c-12 -13 -19 -14 -28 -5 -8 8 -7 11 5 11 9 0 19 8 23 18
5 11 9 13 12 5 3 -7 -3 -20 -12 -29z m45 26 c0 -5 -4 -10 -10 -10 -5 0 -10 5
-10 10 0 6 5 10 10 10 6 0 10 -4 10 -10z m-55 -60 c-3 -5 -10 -10 -16 -10 -5
0 -9 5 -9 10 0 6 7 10 16 10 8 0 12 -4 9 -10z"/>
<path d="M820 1090 c-60 -6 -56 -7 43 -8 66 -1 107 2 107 8 0 11 -44 11 -150
0z"/>
<path d="M778 1033 c39 -2 105 -2 145 0 39 1 7 3 -73 3 -80 0 -112 -2 -72 -3z"/>
<path d="M823 983 c37 -2 96 -2 130 0 34 2 4 3 -68 3 -71 0 -99 -1 -62 -3z"/>
<path d="M808 933 c39 -2 105 -2 145 0 39 1 7 3 -73 3 -80 0 -112 -2 -72 -3z"/>
<path d="M915 900 l-120 -6 123 -2 c76 -1 122 2 122 8 0 6 -1 9 -2 8 -2 -1
-57 -5 -123 -8z"/>
<path d="M1114 824 c-8 -29 9 -46 41 -42 24 3 33 46 13 59 -25 16 -48 9 -54
-17z"/>
<path d="M1332 838 c-26 -26 1 -65 38 -53 32 10 20 65 -15 65 -6 0 -16 -5 -23
-12z"/>
</g>
</svg>
